<?xml version="1.0" encoding="utf-8"?>
<!-- Generator: Adobe Illustrator 28.0.0, SVG Export Plug-In . SVG Version: 6.00 Build 0)  -->
<svg version="1.1" xmlns="http://www.w3.org/2000/svg" xmlns:xlink="http://www.w3.org/1999/xlink" x="0px" y="0px"
	 viewBox="0 0 500 500" style="enable-background:new 0 0 500 500;" xml:space="preserve">
<style type="text/css">
	.st0{fill:#4B4B4B;}
	.st1{fill:#FFFFFF;}
</style>
<g id="Layer_2">
	<g>
		<g>
			<polygon class="st0" points="225,290 195,290 195,306.5 195,323.1 195,328.5 305,328.5 305,306.5 225,306.5 			"/>
		</g>
		<g>
			<polygon class="st0" points="225,210 225,193.5 305,193.5 305,171.5 195,171.5 195,176.9 195,193.5 195,210 			"/>
		</g>
	</g>
	<g>
		<path class="st0" d="M147.8,210l8-45.2c1.5-8.5,9.8-16,17.8-16h193.5c2.5,0,4.5,0.8,5.9,2.3c2,2.1,2.7,5.5,2.1,9.3l-8.8,49.6h15.2
			l8.4-47.4c2.7-15.2-7.5-27.6-22.8-27.6H173.6c-15.3,0-29.9,12.4-32.6,27.6l-8.4,47.4H147.8z"/>
		<path class="st0" d="M352.2,290l-8,45.2c-1.5,8.5-9.8,16-17.8,16H132.9c-2.5,0-4.5-0.8-5.9-2.3c-2-2.1-2.7-5.5-2.1-9.3l8.8-49.6
			h-15.2l-8.4,47.4c-2.7,15.2,7.5,27.6,22.8,27.6h193.5c15.3,0,29.9-12.4,32.6-27.6l8.4-47.4H352.2z"/>
	</g>
</g>
<g id="Layer_3">
	<g>
		<path class="st1" d="M71.1,277.9l13.3-57.5h33l-1.9,8.1H91.8l-3.7,16.3h19l-1.9,8.2H86.3l-3.9,16.7h23.7l-1.9,8.1H71.1z"/>
		<path class="st1" d="M133.5,277.9h-20.4l13.4-57.5h18.2c11.8,0,17.6,5.8,17.6,17.3c0,9.9-2.3,18.9-6.9,27c-2.2,4-5.3,7.2-9.1,9.6
			C142.5,276.7,138.3,277.9,133.5,277.9z M148.4,258c1.4-3.4,2.4-6.8,3.1-10.3c0.7-3.5,1.1-6.9,1.1-10.1c0-3.2-0.8-5.5-2.4-7
			c-1.6-1.4-4.1-2.1-7.4-2.1h-9l-9.4,41.2h10c3,0,5.8-1.1,8.2-3.3C145.1,264.2,147,261.4,148.4,258z"/>
		<path class="st1" d="M177.2,259c-0.5,2.2-0.8,4.3-0.8,6.2c0,3.6,2.9,5.5,8.6,5.5c3.9,0,6.7-0.9,8.4-2.7c1.8-1.8,3.1-4.7,4.1-8.7
			l9-38.9h9.4l-9,38.9c-1.6,6.8-4.1,11.8-7.7,14.9c-3.6,3.1-8.3,4.7-14.2,4.7c-11.9,0-17.9-4.2-17.9-12.6c0-2.4,0.3-5.2,1-8.6
			l8.7-37.3h9.4L177.2,259z"/>
		<path class="st1" d="M233.6,278.8c-11.2,0-16.8-5.5-16.8-16.5c0-8.1,1.4-15.7,4.2-22.8c1.5-3.8,3.4-7.2,5.6-10.1
			c2.2-2.9,5-5.3,8.4-7.2c3.4-1.8,7.1-2.8,11.2-2.8c3.8,0,7.8,0.6,12.1,1.7l2.1,0.6l-2.2,7.1c-3.8-0.8-7.8-1.2-12-1.2
			c-4.2,0-7.8,1.7-10.8,5.2c-3,3.5-5.2,7.8-6.7,12.9c-1.4,5.1-2.1,10.4-2.1,16c0,6,2.8,9.1,8.3,9.1c3.5,0,7.4-0.3,11.7-1l1.9-0.3
			l-0.7,7.4C242.6,278.1,237.9,278.8,233.6,278.8z"/>
		<path class="st1" d="M304.6,220.3l-23.9,33.1l-5.8,24.4h-8.7l5.8-25l-8.4-32.5h9.5l5.2,24.4l16.5-24.4H304.6z"/>
		<path class="st1" d="M330.3,220.3c9.7,0,14.5,4,14.5,11.9c0,7-3.4,12.3-10.1,16c2.3,1.1,3.9,2.5,4.8,4c0.9,1.5,1.3,3.5,1.3,5.9
			c0,5.8-1.9,10.6-5.8,14.2c-3.8,3.7-9.4,5.5-16.6,5.5h-20.9l13.3-57.5H330.3z M324,252.7h-11.2l-3.9,17.1h11.5c3.4,0,6-1,7.9-3.1
			c1.9-2.1,2.9-4.8,2.9-8.3C331.2,254.6,328.8,252.7,324,252.7z M328.8,228.4h-10.3l-3.9,16.4h10.5c2.9,0,5.3-1,7.3-3
			c1.9-2,2.9-4.6,2.9-7.7c0-2-0.5-3.4-1.6-4.3C332.7,228.8,331,228.4,328.8,228.4z"/>
		<path class="st1" d="M345.9,277.9l13.3-57.5h33l-1.9,8.1h-23.6l-3.7,16.3h19L380,253h-18.9l-3.9,16.7H381l-1.9,8.1H345.9z"/>
		<path class="st1" d="M418.3,220.3c5.6,0,9.7,1.2,12.4,3.6c2.7,2.4,4,6.3,4,11.8s-1.3,10-4,13.7c-2.7,3.7-5.9,6.1-9.7,7.4l5.4,21
			h-9.3l-4.7-19.7h-10.6l-4.5,19.7h-9.4l13.4-57.5H418.3z M421.9,246c2.1-2.7,3.2-5.7,3.2-9.1c0-3.4-0.6-5.7-1.7-6.8
			c-1.1-1.1-3.1-1.7-5.8-1.7h-8.9l-5,21.7h9.7C417,250.1,419.8,248.7,421.9,246z"/>
	</g>
</g>
</svg>
